# xmcd CD database file
#
# Track frame offsets:
#	150
#	14053
#	34843
#	50107
#	69725
#	84562
#	101607
#
# Disc length: 1549 seconds
#
# Revision: 1
# Processed by: cddbd v1.5.2PL0 Copyright (c) Steve Scherf et al.
# Submitted via: CDex 1.70
#
DISCID=60060b07
DTITLE=Doc Dengler and The Heartbreakers - Country and Rockabilly
DYEAR=2015
DGENRE=Country
TTITLE0=Cigarettes and Coffee Blues
TTITLE1=I'll Break Out Tonight
TTITLE2=Is Anybody Going To San Antone
TTITLE3=Lonesome Fugitive
TTITLE4=Mein Stern
TTITLE5=Silver Wings
TTITLE6=Til I Get It Right
EXTD=YEAR: 2015
EXTT0=
EXTT1=
EXTT2=
EXTT3=
EXTT4=
EXTT5=
EXTT6=
PLAYORDER=
